<mxfile host="app.diagrams.net" modified="2022-11-07T17:31:43.278Z" agent="5.0 (X11)" etag="J4NkS1Ov5IAjO3g6EXyG" version="20.5.3" type="github">
  <diagram id="ggLU8boLsBFlELYb11a3" name="Page-1">
    <mxGraphModel dx="551" dy="333" grid="1" gridSize="10" guides="1" tooltips="1" connect="1" arrows="1" fold="1" page="1" pageScale="1" pageWidth="1169" pageHeight="827" math="0" shadow="0">
      <root>
        <mxCell id="0" />
        <mxCell id="1" parent="0" />
        <mxCell id="yTGURI3jXAyp7W1Crw5f-1" value="" style="rounded=0;whiteSpace=wrap;html=1;" parent="1" vertex="1">
          <mxGeometry x="285" y="266.7" width="230" height="266.7" as="geometry" />
        </mxCell>
        <mxCell id="CowljkBYiHnfL4JR3YHi-3" value="" style="endArrow=none;html=1;rounded=0;exitX=0;exitY=0.5;exitDx=0;exitDy=0;entryX=1;entryY=0.5;entryDx=0;entryDy=0;" edge="1" parent="1" source="yTGURI3jXAyp7W1Crw5f-1" target="yTGURI3jXAyp7W1Crw5f-1">
          <mxGeometry width="50" height="50" relative="1" as="geometry">
            <mxPoint x="295" y="554" as="sourcePoint" />
            <mxPoint x="895" y="554" as="targetPoint" />
          </mxGeometry>
        </mxCell>
        <mxCell id="CowljkBYiHnfL4JR3YHi-5" value="" style="endArrow=none;html=1;rounded=0;exitX=0;exitY=0.75;exitDx=0;exitDy=0;entryX=1;entryY=0.75;entryDx=0;entryDy=0;" edge="1" parent="1">
          <mxGeometry width="50" height="50" relative="1" as="geometry">
            <mxPoint x="285" y="439.995" as="sourcePoint" />
            <mxPoint x="515" y="439.995" as="targetPoint" />
          </mxGeometry>
        </mxCell>
        <mxCell id="CowljkBYiHnfL4JR3YHi-6" value="" style="endArrow=none;html=1;rounded=0;exitX=0;exitY=0.25;exitDx=0;exitDy=0;entryX=1;entryY=0.25;entryDx=0;entryDy=0;" edge="1" parent="1">
          <mxGeometry width="50" height="50" relative="1" as="geometry">
            <mxPoint x="285" y="360.005" as="sourcePoint" />
            <mxPoint x="515" y="360.005" as="targetPoint" />
          </mxGeometry>
        </mxCell>
        <mxCell id="CowljkBYiHnfL4JR3YHi-7" value="" style="endArrow=none;html=1;rounded=0;exitX=0;exitY=0.25;exitDx=0;exitDy=0;entryX=1;entryY=0.25;entryDx=0;entryDy=0;" edge="1" parent="1">
          <mxGeometry width="50" height="50" relative="1" as="geometry">
            <mxPoint x="285" y="310.005" as="sourcePoint" />
            <mxPoint x="515" y="310.005" as="targetPoint" />
          </mxGeometry>
        </mxCell>
        <mxCell id="CowljkBYiHnfL4JR3YHi-8" value="" style="endArrow=none;html=1;rounded=0;exitX=0;exitY=0.75;exitDx=0;exitDy=0;entryX=1;entryY=0.75;entryDx=0;entryDy=0;" edge="1" parent="1">
          <mxGeometry width="50" height="50" relative="1" as="geometry">
            <mxPoint x="285" y="489.995" as="sourcePoint" />
            <mxPoint x="515" y="489.995" as="targetPoint" />
          </mxGeometry>
        </mxCell>
      </root>
    </mxGraphModel>
  </diagram>
</mxfile>
